<svg xmlns="http://www.w3.org/2000/svg" width="860" height="174" viewBox="0 0 860 174" role="img" aria-label="Turns per task (mean) by arm; gaslighter-lite lowest at 6.0, gaslighter-full highest at 12.2.">
<text x="170" y="22" font-family="system-ui, -apple-system, &quot;Segoe UI&quot;, sans-serif" font-size="15" font-weight="600" fill="#ffffff">Turns per task (mean)</text>
<text x="170" y="41" font-family="system-ui, -apple-system, &quot;Segoe UI&quot;, sans-serif" font-size="12.5" fill="#c3c2b7">mean turns per arm &#183; cost/overhead, not a quality signal</text>
<text x="158" y="79.5" text-anchor="end" font-family="system-ui, -apple-system, &quot;Segoe UI&quot;, sans-serif" font-size="13" font-weight="600" fill="#ffffff">gaslighter-full</text>
<path d="M170,66.0 H713.8260869565217 Q717.8260869565217,66.0 717.8260869565217,70.0 V80.0 Q717.8260869565217,84.0 713.8260869565217,84.0 H170 Z" fill="#3987e5"/>
<text x="725.8260869565217" y="79.5" font-family="system-ui, -apple-system, &quot;Segoe UI&quot;, sans-serif" font-size="13" font-weight="600" fill="#ffffff">12.2</text>
<text x="158" y="113.5" text-anchor="end" font-family="system-ui, -apple-system, &quot;Segoe UI&quot;, sans-serif" font-size="13" fill="#c3c2b7">baseline</text>
<path d="M170,100.0 H489.30719885958666 Q493.30719885958666,100.0 493.30719885958666,104.0 V114.0 Q493.30719885958666,118.0 489.30719885958666,118.0 H170 Z" fill="#898781"/>
<text x="501.30719885958666" y="113.5" font-family="system-ui, -apple-system, &quot;Segoe UI&quot;, sans-serif" font-size="13" fill="#ffffff">7.2</text>
<text x="158" y="147.5" text-anchor="end" font-family="system-ui, -apple-system, &quot;Segoe UI&quot;, sans-serif" font-size="13" fill="#c3c2b7">gaslighter-lite</text>
<path d="M170,134.0 H435.4226657163222 Q439.4226657163222,134.0 439.4226657163222,138.0 V148.0 Q439.4226657163222,152.0 435.4226657163222,152.0 H170 Z" fill="#898781"/>
<text x="447.4226657163222" y="147.5" font-family="system-ui, -apple-system, &quot;Segoe UI&quot;, sans-serif" font-size="13" fill="#ffffff">6.0</text>
<line x1="170" y1="54" x2="170" y2="160" stroke="#383835" stroke-width="1"/>
</svg>
