<svg xmlns="http://www.w3.org/2000/svg" width="860" height="276" viewBox="0 0 860 276" role="img" aria-label="Missed requirements per 100 tasks by arm; gaslighter-full is lowest at 2.2">
<text x="170" y="22" font-family="system-ui, -apple-system, &quot;Segoe UI&quot;, sans-serif" font-size="15" font-weight="600" fill="#0b0b0b">Missed requirements per 100 tasks</text>
<text x="170" y="41" font-family="system-ui, -apple-system, &quot;Segoe UI&quot;, sans-serif" font-size="12.5" fill="#52514e">headless Claude Code sessions, deterministic scoring &#183; lower is better</text>
<text x="158" y="79.5" text-anchor="end" font-family="system-ui, -apple-system, &quot;Segoe UI&quot;, sans-serif" font-size="13" fill="#52514e">nudge-prompt</text>
<path d="M170,66.0 H713.8260869565217 Q717.8260869565217,66.0 717.8260869565217,70.0 V80.0 Q717.8260869565217,84.0 713.8260869565217,84.0 H170 Z" fill="#898781"/>
<text x="725.8260869565217" y="79.5" font-family="system-ui, -apple-system, &quot;Segoe UI&quot;, sans-serif" font-size="13" fill="#0b0b0b">7.5</text>
<text x="158" y="113.5" text-anchor="end" font-family="system-ui, -apple-system, &quot;Segoe UI&quot;, sans-serif" font-size="13" fill="#52514e">baseline</text>
<path d="M170,100.0 H675.3821510297485 Q679.3821510297485,100.0 679.3821510297485,104.0 V114.0 Q679.3821510297485,118.0 675.3821510297485,118.0 H170 Z" fill="#898781"/>
<text x="687.3821510297485" y="113.5" font-family="system-ui, -apple-system, &quot;Segoe UI&quot;, sans-serif" font-size="13" fill="#0b0b0b">7.0</text>
<text x="158" y="147.5" text-anchor="end" font-family="system-ui, -apple-system, &quot;Segoe UI&quot;, sans-serif" font-size="13" fill="#52514e">gaslighter-smart</text>
<path d="M170,134.0 H649.913043478261 Q653.913043478261,134.0 653.913043478261,138.0 V148.0 Q653.913043478261,152.0 649.913043478261,152.0 H170 Z" fill="#898781"/>
<text x="661.913043478261" y="147.5" font-family="system-ui, -apple-system, &quot;Segoe UI&quot;, sans-serif" font-size="13" fill="#0b0b0b">6.7</text>
<text x="158" y="181.5" text-anchor="end" font-family="system-ui, -apple-system, &quot;Segoe UI&quot;, sans-serif" font-size="13" fill="#52514e">gaslighter-off</text>
<path d="M170,168.0 H576.8695652173914 Q580.8695652173914,168.0 580.8695652173914,172.0 V182.0 Q580.8695652173914,186.0 576.8695652173914,186.0 H170 Z" fill="#898781"/>
<text x="588.8695652173914" y="181.5" font-family="system-ui, -apple-system, &quot;Segoe UI&quot;, sans-serif" font-size="13" fill="#0b0b0b">5.7</text>
<text x="158" y="215.5" text-anchor="end" font-family="system-ui, -apple-system, &quot;Segoe UI&quot;, sans-serif" font-size="13" fill="#52514e">gaslighter-lite</text>
<path d="M170,202.0 H516.2002288329523 Q520.2002288329523,202.0 520.2002288329523,206.0 V216.0 Q520.2002288329523,220.0 516.2002288329523,220.0 H170 Z" fill="#898781"/>
<text x="528.2002288329523" y="215.5" font-family="system-ui, -apple-system, &quot;Segoe UI&quot;, sans-serif" font-size="13" fill="#0b0b0b">4.8</text>
<text x="158" y="249.5" text-anchor="end" font-family="system-ui, -apple-system, &quot;Segoe UI&quot;, sans-serif" font-size="13" font-weight="600" fill="#0b0b0b">gaslighter-full</text>
<path d="M170,236.0 H325.1819221967961 Q329.1819221967961,236.0 329.1819221967961,240.0 V250.0 Q329.1819221967961,254.0 325.1819221967961,254.0 H170 Z" fill="#2a78d6"/>
<text x="337.1819221967961" y="249.5" font-family="system-ui, -apple-system, &quot;Segoe UI&quot;, sans-serif" font-size="13" font-weight="600" fill="#0b0b0b">2.2</text>
<line x1="170" y1="54" x2="170" y2="262" stroke="#c3c2b7" stroke-width="1"/>
</svg>
