<svg xmlns="http://www.w3.org/2000/svg" width="860" height="276" viewBox="0 0 860 276" role="img" aria-label="Turns per task (mean) by arm; baseline lowest at 7.6, gaslighter-full highest at 10.9.">
<text x="170" y="22" font-family="system-ui, -apple-system, &quot;Segoe UI&quot;, sans-serif" font-size="15" font-weight="600" fill="#ffffff">Turns per task (mean)</text>
<text x="170" y="41" font-family="system-ui, -apple-system, &quot;Segoe UI&quot;, sans-serif" font-size="12.5" fill="#c3c2b7">mean turns per arm &#183; cost/overhead, not a quality signal</text>
<text x="158" y="79.5" text-anchor="end" font-family="system-ui, -apple-system, &quot;Segoe UI&quot;, sans-serif" font-size="13" font-weight="600" fill="#ffffff">gaslighter-full</text>
<path d="M170,66.0 H713.8260869565217 Q717.8260869565217,66.0 717.8260869565217,70.0 V80.0 Q717.8260869565217,84.0 713.8260869565217,84.0 H170 Z" fill="#3987e5"/>
<text x="725.8260869565217" y="79.5" font-family="system-ui, -apple-system, &quot;Segoe UI&quot;, sans-serif" font-size="13" font-weight="600" fill="#ffffff">10.9</text>
<text x="158" y="113.5" text-anchor="end" font-family="system-ui, -apple-system, &quot;Segoe UI&quot;, sans-serif" font-size="13" fill="#c3c2b7">gaslighter-lite</text>
<path d="M170,100.0 H567.5820573370233 Q571.5820573370233,100.0 571.5820573370233,104.0 V114.0 Q571.5820573370233,118.0 567.5820573370233,118.0 H170 Z" fill="#898781"/>
<text x="579.5820573370233" y="113.5" font-family="system-ui, -apple-system, &quot;Segoe UI&quot;, sans-serif" font-size="13" fill="#ffffff">8.0</text>
<text x="158" y="147.5" text-anchor="end" font-family="system-ui, -apple-system, &quot;Segoe UI&quot;, sans-serif" font-size="13" fill="#c3c2b7">gaslighter-off</text>
<path d="M170,134.0 H564.3123966378978 Q568.3123966378978,134.0 568.3123966378978,138.0 V148.0 Q568.3123966378978,152.0 564.3123966378978,152.0 H170 Z" fill="#898781"/>
<text x="576.3123966378978" y="147.5" font-family="system-ui, -apple-system, &quot;Segoe UI&quot;, sans-serif" font-size="13" fill="#ffffff">7.9</text>
<text x="158" y="181.5" text-anchor="end" font-family="system-ui, -apple-system, &quot;Segoe UI&quot;, sans-serif" font-size="13" fill="#c3c2b7">gaslighter-smart</text>
<path d="M170,168.0 H554.009445756355 Q558.009445756355,168.0 558.009445756355,172.0 V182.0 Q558.009445756355,186.0 554.009445756355,186.0 H170 Z" fill="#898781"/>
<text x="566.009445756355" y="181.5" font-family="system-ui, -apple-system, &quot;Segoe UI&quot;, sans-serif" font-size="13" fill="#ffffff">7.7</text>
<text x="158" y="215.5" text-anchor="end" font-family="system-ui, -apple-system, &quot;Segoe UI&quot;, sans-serif" font-size="13" fill="#c3c2b7">nudge-prompt</text>
<path d="M170,202.0 H552.8839076517341 Q556.8839076517341,202.0 556.8839076517341,206.0 V216.0 Q556.8839076517341,220.0 552.8839076517341,220.0 H170 Z" fill="#898781"/>
<text x="564.8839076517341" y="215.5" font-family="system-ui, -apple-system, &quot;Segoe UI&quot;, sans-serif" font-size="13" fill="#ffffff">7.7</text>
<text x="158" y="249.5" text-anchor="end" font-family="system-ui, -apple-system, &quot;Segoe UI&quot;, sans-serif" font-size="13" fill="#c3c2b7">baseline</text>
<path d="M170,236.0 H546.9336766858644 Q550.9336766858644,236.0 550.9336766858644,240.0 V250.0 Q550.9336766858644,254.0 546.9336766858644,254.0 H170 Z" fill="#898781"/>
<text x="558.9336766858644" y="249.5" font-family="system-ui, -apple-system, &quot;Segoe UI&quot;, sans-serif" font-size="13" fill="#ffffff">7.6</text>
<line x1="170" y1="54" x2="170" y2="262" stroke="#383835" stroke-width="1"/>
</svg>
