<svg xmlns="http://www.w3.org/2000/svg" width="860" height="276" viewBox="0 0 860 276" role="img" aria-label="Missed requirements per 100 tasks by arm; gaslighter-full is lowest at 2.4">
<text x="170" y="22" font-family="system-ui, -apple-system, &quot;Segoe UI&quot;, sans-serif" font-size="15" font-weight="600" fill="#0b0b0b">Missed requirements per 100 tasks</text>
<text x="170" y="41" font-family="system-ui, -apple-system, &quot;Segoe UI&quot;, sans-serif" font-size="12.5" fill="#52514e">headless Claude Code sessions, deterministic scoring &#183; lower is better</text>
<text x="158" y="79.5" text-anchor="end" font-family="system-ui, -apple-system, &quot;Segoe UI&quot;, sans-serif" font-size="13" fill="#52514e">nudge-prompt</text>
<path d="M170,66.0 H713.8260869565217 Q717.8260869565217,66.0 717.8260869565217,70.0 V80.0 Q717.8260869565217,84.0 713.8260869565217,84.0 H170 Z" fill="#898781"/>
<text x="725.8260869565217" y="79.5" font-family="system-ui, -apple-system, &quot;Segoe UI&quot;, sans-serif" font-size="13" fill="#0b0b0b">7.5</text>
<text x="158" y="113.5" text-anchor="end" font-family="system-ui, -apple-system, &quot;Segoe UI&quot;, sans-serif" font-size="13" fill="#52514e">gaslighter-smart</text>
<path d="M170,100.0 H649.913043478261 Q653.913043478261,100.0 653.913043478261,104.0 V114.0 Q653.913043478261,118.0 649.913043478261,118.0 H170 Z" fill="#898781"/>
<text x="661.913043478261" y="113.5" font-family="system-ui, -apple-system, &quot;Segoe UI&quot;, sans-serif" font-size="13" fill="#0b0b0b">6.7</text>
<text x="158" y="147.5" text-anchor="end" font-family="system-ui, -apple-system, &quot;Segoe UI&quot;, sans-serif" font-size="13" fill="#52514e">baseline</text>
<path d="M170,134.0 H645.3478260869565 Q649.3478260869565,134.0 649.3478260869565,138.0 V148.0 Q649.3478260869565,152.0 645.3478260869565,152.0 H170 Z" fill="#898781"/>
<text x="657.3478260869565" y="147.5" font-family="system-ui, -apple-system, &quot;Segoe UI&quot;, sans-serif" font-size="13" fill="#0b0b0b">6.6</text>
<text x="158" y="181.5" text-anchor="end" font-family="system-ui, -apple-system, &quot;Segoe UI&quot;, sans-serif" font-size="13" fill="#52514e">gaslighter-off</text>
<path d="M170,168.0 H576.8695652173914 Q580.8695652173914,168.0 580.8695652173914,172.0 V182.0 Q580.8695652173914,186.0 576.8695652173914,186.0 H170 Z" fill="#898781"/>
<text x="588.8695652173914" y="181.5" font-family="system-ui, -apple-system, &quot;Segoe UI&quot;, sans-serif" font-size="13" fill="#0b0b0b">5.7</text>
<text x="158" y="215.5" text-anchor="end" font-family="system-ui, -apple-system, &quot;Segoe UI&quot;, sans-serif" font-size="13" fill="#52514e">gaslighter-lite</text>
<path d="M170,202.0 H542.6304347826091 Q546.6304347826091,202.0 546.6304347826091,206.0 V216.0 Q546.6304347826091,220.0 542.6304347826091,220.0 H170 Z" fill="#898781"/>
<text x="554.6304347826091" y="215.5" font-family="system-ui, -apple-system, &quot;Segoe UI&quot;, sans-serif" font-size="13" fill="#0b0b0b">5.2</text>
<text x="158" y="249.5" text-anchor="end" font-family="system-ui, -apple-system, &quot;Segoe UI&quot;, sans-serif" font-size="13" font-weight="600" fill="#0b0b0b">gaslighter-full</text>
<path d="M170,236.0 H337.19565217391346 Q341.19565217391346,236.0 341.19565217391346,240.0 V250.0 Q341.19565217391346,254.0 337.19565217391346,254.0 H170 Z" fill="#2a78d6"/>
<text x="349.19565217391346" y="249.5" font-family="system-ui, -apple-system, &quot;Segoe UI&quot;, sans-serif" font-size="13" font-weight="600" fill="#0b0b0b">2.4</text>
<line x1="170" y1="54" x2="170" y2="262" stroke="#c3c2b7" stroke-width="1"/>
</svg>
