<svg xmlns="http://www.w3.org/2000/svg" width="860" height="174" viewBox="0 0 860 174" role="img" aria-label="Overcorrection per 100 tasks by arm; gaslighter-full lowest at 6.7, baseline highest at 6.7.">
<text x="170" y="22" font-family="system-ui, -apple-system, &quot;Segoe UI&quot;, sans-serif" font-size="15" font-weight="600" fill="#0b0b0b">Overcorrection per 100 tasks</text>
<text x="170" y="41" font-family="system-ui, -apple-system, &quot;Segoe UI&quot;, sans-serif" font-size="12.5" fill="#52514e">LLM-judged overcorrection (0-3 scale) rescaled per 100 tasks &#183; lower is better</text>
<text x="158" y="79.5" text-anchor="end" font-family="system-ui, -apple-system, &quot;Segoe UI&quot;, sans-serif" font-size="13" fill="#52514e">baseline</text>
<path d="M170,66.0 H713.8260869565217 Q717.8260869565217,66.0 717.8260869565217,70.0 V80.0 Q717.8260869565217,84.0 713.8260869565217,84.0 H170 Z" fill="#898781"/>
<text x="725.8260869565217" y="79.5" font-family="system-ui, -apple-system, &quot;Segoe UI&quot;, sans-serif" font-size="13" fill="#0b0b0b">6.7</text>
<text x="158" y="113.5" text-anchor="end" font-family="system-ui, -apple-system, &quot;Segoe UI&quot;, sans-serif" font-size="13" fill="#52514e">gaslighter-lite</text>
<path d="M170,100.0 H713.8260869565217 Q717.8260869565217,100.0 717.8260869565217,104.0 V114.0 Q717.8260869565217,118.0 713.8260869565217,118.0 H170 Z" fill="#898781"/>
<text x="725.8260869565217" y="113.5" font-family="system-ui, -apple-system, &quot;Segoe UI&quot;, sans-serif" font-size="13" fill="#0b0b0b">6.7</text>
<text x="158" y="147.5" text-anchor="end" font-family="system-ui, -apple-system, &quot;Segoe UI&quot;, sans-serif" font-size="13" font-weight="600" fill="#0b0b0b">gaslighter-full</text>
<path d="M170,134.0 H713.8260869565217 Q717.8260869565217,134.0 717.8260869565217,138.0 V148.0 Q717.8260869565217,152.0 713.8260869565217,152.0 H170 Z" fill="#2a78d6"/>
<text x="725.8260869565217" y="147.5" font-family="system-ui, -apple-system, &quot;Segoe UI&quot;, sans-serif" font-size="13" font-weight="600" fill="#0b0b0b">6.7</text>
<line x1="170" y1="54" x2="170" y2="160" stroke="#c3c2b7" stroke-width="1"/>
</svg>
